<?xml version="1.0" encoding="UTF-8" standalone="no"?>
<!DOCTYPE svg PUBLIC "-//W3C//DTD SVG 1.1//EN"
"http://www.w3.org/Graphics/SVG/1.1/DTD/svg11.dtd">
<svg viewBox="0 0 909 1286" version="1.1" xmlns="http://www.w3.org/2000/svg" xmlns:xlink="http://www.w3.org/1999/xlink">
<defs>
<style type="text/css"><![CDATA[
.g0_1{
fill: #FFF;
}
]]></style>
</defs>
<path fill-rule="evenodd" d="M107.8 215.3H801.9V194.7H107.8v20.6Z" class="g0_1"/>
<path fill-rule="evenodd" d="M107.8 238.2H801.9V215.3H107.8v22.9Z" class="g0_1"/>
<path fill-rule="evenodd" d="M107.8 294.6H801.9V275H107.8v19.6Z" class="g0_1"/>
<path fill-rule="evenodd" d="M107.8 317.6H801.9v-23H107.8v23Z" class="g0_1"/>
<path fill-rule="evenodd" d="M107.8 340.5H801.9V317.6H107.8v22.9Z" class="g0_1"/>
<path fill-rule="evenodd" d="M107.8 363.4H801.9V340.5H107.8v22.9Z" class="g0_1"/>
<path fill-rule="evenodd" d="M107.8 386.3H801.9V363.4H107.8v22.9Z" class="g0_1"/>
<path fill-rule="evenodd" d="M107.8 409.3H801.9v-23H107.8v23Z" class="g0_1"/>
<path fill-rule="evenodd" d="M107.8 432.2H801.9V409.3H107.8v22.9Z" class="g0_1"/>
<path fill-rule="evenodd" d="M107.8 455.1H801.9V432.2H107.8v22.9Z" class="g0_1"/>
<path fill-rule="evenodd" d="M107.8 478H801.9V455.1H107.8V478Z" class="g0_1"/>
<path fill-rule="evenodd" d="M107.8 534.3H801.9V514.7H107.8v19.6Z" class="g0_1"/>
<path fill-rule="evenodd" d="M107.8 557.2H801.9V534.3H107.8v22.9Z" class="g0_1"/>
<path fill-rule="evenodd" d="M107.8 580.1H801.9V557.2H107.8v22.9Z" class="g0_1"/>
<path fill-rule="evenodd" d="M107.8 603.1H801.9v-23H107.8v23Z" class="g0_1"/>
<path fill-rule="evenodd" d="M107.8 626H801.9V603.1H107.8V626Z" class="g0_1"/>
</svg>